<svg enable-background="new 0 0 18 15" viewBox="0 0 18 15" xmlns="http://www.w3.org/2000/svg"><path clip-rule="evenodd" d="m5.509 1c-1.345 0-2.489.56-3.276 1.417-.787.856-1.233 2.004-1.233 3.207 0 2.031.894 3.505 2.319 4.749 1.425 1.243 3.373 2.275 5.534 3.534l.147.093.147-.093c2.161-1.26 4.11-2.291 5.534-3.534s2.319-2.718 2.319-4.749c0-1.203-.445-2.351-1.233-3.207-.787-.857-1.931-1.417-3.276-1.417-1.577 0-2.831.696-3.491 1.23-.66-.534-1.913-1.23-3.491-1.23" fill="#f0ebe6" fill-rule="evenodd"/><path d="m15.896 2.298c-.874-.95-2.084-1.473-3.405-1.473-1.707 0-2.947.769-3.491 1.183-.483-.365-1.76-1.183-3.491-1.183-1.322 0-2.531.523-3.405 1.473-.825.897-1.279 2.078-1.279 3.326 0 1.913.756 3.464 2.379 4.88 1.197 1.045 2.721 1.92 4.486 2.934.352.201.71.407 1.069.616l.241.154.235-.15c.369-.215.731-.423 1.085-.627 1.761-1.011 3.281-1.885 4.476-2.927 1.623-1.416 2.379-2.967 2.379-4.88 0-1.248-.454-2.429-1.279-3.326zm.377 3.326c0 1.681-.646 2.994-2.096 4.259-1.139.993-2.682 1.883-4.467 2.913l-.71.41-.715-.413c-1.785-1.029-3.325-1.918-4.463-2.91-1.449-1.265-2.095-2.578-2.095-4.259 0-1.029.386-2.039 1.058-2.77.711-.773 1.653-1.182 2.725-1.182 1.477 0 2.723.78 3.176 1.193l.314.286.316-.286c.453-.413 1.698-1.192 3.175-1.192 1.072 0 2.014.409 2.725 1.182.672.729 1.057 1.739 1.057 2.769z" fill="#bab6b3"/></svg>